<svg width="67" height="52" viewBox="0 0 67 52" fill="none" xmlns="http://www.w3.org/2000/svg">
<path d="M54.6833 39.4847H58.8546C59.3892 39.4847 59.8226 39.0514 59.8226 38.5167V5.13937C59.8226 4.60466 59.3892 4.17139 58.8546 4.17139H7.22634C6.69176 4.17139 6.25836 4.60466 6.25836 5.13937V38.5167C6.25836 39.0514 6.69176 39.4847 7.22634 39.4847H50.1531C50.6877 39.4847 51.1211 39.0514 51.1211 38.5167C51.1211 37.982 50.6877 37.5487 50.1531 37.5487H8.19433V6.10735H57.8867V37.5487H54.6833C54.1487 37.5487 53.7153 37.982 53.7153 38.5167C53.7153 39.0514 54.1487 39.4847 54.6833 39.4847Z" fill="#AE7C78"/>
<path d="M65.1129 41.72H63.9952V3.57508C63.9952 1.60375 62.3908 0 60.4189 0H15.538C15.0035 0 14.5701 0.433269 14.5701 0.967982C14.5701 1.5027 15.0035 1.93596 15.538 1.93596H60.4189C61.3233 1.93596 62.0593 2.67124 62.0593 3.57508V41.72H4.02164V3.57508C4.02164 2.67124 4.75757 1.93596 5.66205 1.93596H11.0131C11.5476 1.93596 11.981 1.5027 11.981 0.967982C11.981 0.433269 11.5476 0 11.0131 0H5.66205C3.69008 0 2.08568 1.60375 2.08568 3.57508V41.72H0.967982C0.433398 41.72 0 42.1533 0 42.688V47.9035C0 50.1624 1.83775 52 4.0965 52H8.84736C9.38194 52 9.81534 51.5667 9.81534 51.032C9.81534 50.4973 9.38194 50.064 8.84736 50.064H4.0965C2.90524 50.064 1.93596 49.0948 1.93596 47.9035V43.656H25.8099L26.3296 45.3192C26.7986 46.8199 28.1701 47.8281 29.7423 47.8281H36.3383C37.9106 47.8281 39.282 46.8199 39.751 45.3192L40.2708 43.656H64.1449V47.9035C64.1449 49.0948 63.1757 50.064 61.9844 50.064H13.3775C12.8429 50.064 12.4095 50.4973 12.4095 51.032C12.4095 51.5667 12.8429 52 13.3775 52H61.9844C64.2432 52 66.0809 50.1624 66.0809 47.9035V42.688C66.0809 42.1533 65.6475 41.72 65.1129 41.72ZM37.9033 44.7417C37.6883 45.4299 37.0594 45.8922 36.3384 45.8922H29.7425C29.0215 45.8922 28.3926 45.4299 28.1776 44.7417L27.8383 43.656H38.2426L37.9033 44.7417Z" fill="#AE7C78"/>
<path d="M24.3053 23.3176C24.7667 23.3176 25.164 22.992 25.2545 22.5395L26.4279 16.6725C26.4847 16.3882 26.4111 16.0933 26.2274 15.8689C26.0434 15.6448 25.7688 15.5147 25.4788 15.5147H18.0473C17.5127 15.5147 17.0793 15.9479 17.0793 16.4826C17.0793 17.0174 17.5127 17.4506 18.0473 17.4506H24.298L23.5117 21.3817H15.9856L14.6969 14.3524C14.6126 13.8927 14.2121 13.5591 13.7448 13.5591H11.3981C10.8635 13.5591 10.4301 13.9924 10.4301 14.5271C10.4301 15.0618 10.8635 15.495 11.3981 15.495H12.9383L14.2111 22.4377V26.5218C14.2111 27.0565 14.6445 27.4898 15.1791 27.4898H15.2244C15.1958 27.597 15.1791 27.7092 15.1791 27.8255C15.1791 28.5455 15.7628 29.1293 16.4829 29.1293C17.0736 29.1293 17.5718 28.7363 17.7321 28.1976C17.7702 28.0751 17.7907 27.9448 17.7907 27.8098C17.7907 27.6992 17.7755 27.5924 17.7495 27.4898H19.9179C19.913 27.5091 19.9071 27.5282 19.9031 27.548C19.8836 27.6375 19.8727 27.7302 19.8727 27.8256C19.8727 28.5456 20.4565 29.1294 21.1766 29.1294C21.8073 29.1294 22.3334 28.6814 22.4542 28.0863C22.4734 27.9972 22.4841 27.9048 22.4841 27.81C22.4841 27.6994 22.4689 27.5925 22.4429 27.4899H22.7411C23.2757 27.4899 23.7091 27.0566 23.7091 26.5219C23.7091 25.9872 23.2757 25.5539 22.7411 25.5539H16.1472V23.3179H24.3053V23.3176Z" fill="#AE7C78"/>
<path d="M37.3983 11.3977C37.3983 10.863 36.9649 10.4297 36.4303 10.4297H32.2583C31.7237 10.4297 31.2903 10.863 31.2903 11.3977V15.5698C31.2903 16.1046 31.7237 16.5378 32.2583 16.5378H36.4303C36.9649 16.5378 37.3983 16.1046 37.3983 15.5698V11.3977ZM35.4623 14.6019H33.2262V12.3658H35.4623V14.6019Z" fill="#AE7C78"/>
<path d="M40.6022 16.5378H49.4677C50.0023 16.5378 50.4357 16.1046 50.4357 15.5699C50.4357 15.0353 50.0023 14.6021 49.4677 14.6021H40.6022C40.0676 14.6021 39.6342 15.0353 39.6342 15.5699C39.6342 16.1046 40.0676 16.5378 40.6022 16.5378Z" fill="#AE7C78"/>
<path d="M40.6022 12.3657H54.6829C55.2174 12.3657 55.6508 11.9324 55.6508 11.3977C55.6508 10.863 55.2174 10.4297 54.6829 10.4297H40.6022C40.0676 10.4297 39.6342 10.863 39.6342 11.3977C39.6342 11.9324 40.0676 12.3657 40.6022 12.3657Z" fill="#AE7C78"/>
<path d="M37.3983 19.7419C37.3983 19.2072 36.9649 18.7739 36.4303 18.7739H32.2583C31.7237 18.7739 31.2903 19.2072 31.2903 19.7419V23.9139C31.2903 24.4486 31.7237 24.8819 32.2583 24.8819H36.4303C36.9649 24.8819 37.3983 24.4486 37.3983 23.9139V19.7419ZM35.4623 22.9459H33.2262V20.7099H35.4623V22.9459Z" fill="#AE7C78"/>
<path d="M40.6022 24.8818H49.4677C50.0023 24.8818 50.4357 24.4486 50.4357 23.9139C50.4357 23.3793 50.0023 22.946 49.4677 22.946H40.6022C40.0676 22.946 39.6342 23.3793 39.6342 23.9139C39.6342 24.4486 40.0676 24.8818 40.6022 24.8818Z" fill="#AE7C78"/>
<path d="M40.6022 20.7099H54.6829C55.2174 20.7099 55.6508 20.2766 55.6508 19.7419C55.6508 19.2072 55.2174 18.7739 54.6829 18.7739H40.6022C40.0676 18.7739 39.6342 19.2072 39.6342 19.7419C39.6342 20.2766 40.0676 20.7099 40.6022 20.7099Z" fill="#AE7C78"/>
<path d="M36.4303 27.1182H32.2583C31.7237 27.1182 31.2903 27.5514 31.2903 28.0861V32.2582C31.2903 32.7929 31.7237 33.2261 32.2583 33.2261H36.4303C36.9649 33.2261 37.3983 32.7929 37.3983 32.2582V28.0861C37.3983 27.5516 36.9649 27.1182 36.4303 27.1182ZM35.4623 31.2902H33.2262V29.0541H35.4623V31.2902Z" fill="#AE7C78"/>
<path d="M40.6022 31.29C40.0676 31.29 39.6342 31.7233 39.6342 32.258C39.6342 32.7927 40.0676 33.226 40.6022 33.226H49.4678C50.0023 33.226 50.4357 32.7927 50.4357 32.258C50.4357 31.7233 50.0023 31.29 49.4678 31.29H40.6022Z" fill="#AE7C78"/>
<path d="M55.6508 28.0861C55.6508 27.5514 55.2174 27.1182 54.6828 27.1182H40.6022C40.0676 27.1182 39.6342 27.5514 39.6342 28.0861C39.6342 28.6207 40.0676 29.054 40.6022 29.054H54.6828C55.2174 29.054 55.6508 28.6207 55.6508 28.0861Z" fill="#AE7C78"/>
</svg>
