<svg width="21" height="21" viewBox="0 0 21 21" fill="none" xmlns="http://www.w3.org/2000/svg">
<path d="M5.84581 0.0996094C2.6218 0.0996094 0 2.70362 0 5.90398V14.2967C0 17.497 2.6218 20.0996 5.84581 20.0996H14.3512C17.5752 20.0996 20.197 17.497 20.197 14.2967V5.90398C20.197 2.70362 17.5752 0.0996094 14.3512 0.0996094H5.84581ZM5.84581 1.81896H14.3512C16.6458 1.81896 18.4664 3.62625 18.4664 5.90398V14.2967C18.4664 16.5744 16.6458 18.3803 14.3512 18.3803H5.84581C3.55123 18.3803 1.73203 16.5744 1.73203 14.2967V5.90398C1.73203 3.62625 3.55123 1.81896 5.84581 1.81896ZM15.5189 3.53828C14.8499 3.53828 14.3078 4.07637 14.3078 4.74052C14.3078 5.40468 14.8499 5.94276 15.5189 5.94276C16.188 5.94276 16.73 5.40468 16.73 4.74052C16.73 4.07637 16.188 3.53828 15.5189 3.53828ZM10.0985 4.95022C7.24365 4.95022 4.91107 7.2657 4.91107 10.0996C4.91107 12.9335 7.24365 15.249 10.0985 15.249C12.9534 15.249 15.2874 12.9335 15.2874 10.0996C15.2874 7.2657 12.9534 4.95022 10.0985 4.95022ZM10.0985 6.66957C12.0175 6.66957 13.5553 8.19473 13.5553 10.0996C13.5553 12.0045 12.0175 13.5297 10.0985 13.5297C8.17955 13.5297 6.6431 12.0045 6.6431 10.0996C6.6431 8.19473 8.17955 6.66957 10.0985 6.66957Z" fill="white"/>
</svg>
