<svg width="100" height="33" viewBox="0 0 100 33" fill="none" xmlns="http://www.w3.org/2000/svg">
<g clip-path="url(#clip0_1_209)">
<path d="M9.71758 17.2924C7.71048 19.8415 3.73739 19.9088 1.49482 17.6251C-0.635622 15.4797 -0.373989 12.0598 1.53967 9.93307C2.4666 7.1149 6.54435 7.46624 8.69348 9.18554C11.1827 11.1926 11.7471 14.7097 9.71758 17.2924Z" fill="#FFDCDC"/>
<path d="M13.504 9.58184C11.5306 9.58184 10.7195 8.35217 10.5513 6.85712C9.91591 4.98831 10.7681 2.8018 12.8574 2.25611C13.3518 2.13155 13.8668 2.11242 14.369 2.19997C14.8712 2.28753 15.3494 2.4798 15.7725 2.76429C16.1955 3.04878 16.5539 3.41913 16.8244 3.85124C17.0949 4.28335 17.2715 4.76755 17.3426 5.27237C17.4084 5.81431 17.358 6.36406 17.1949 6.88504C17.0318 7.40603 16.7596 7.88632 16.3965 8.29398C16.0334 8.70163 15.5877 9.02732 15.0889 9.24937C14.5902 9.47143 14.0499 9.58476 13.504 9.58184Z" fill="#FFDCDC"/>
<path d="M19.7271 31.2228L19.8504 30.991C19.0244 30.464 18.2022 29.9296 17.3799 29.3988C16.675 28.8484 16.0332 28.2217 15.4662 27.53C14.6963 26.6816 13.9226 25.8294 13.1489 24.9847C13.0816 24.9137 12.9957 24.8314 12.9882 24.7642C12.2227 23.9582 11.5917 23.0345 11.1194 22.0282C10.6247 21.2488 10.1778 20.4399 9.7813 19.6062C9.74019 19.5165 9.83363 19.3596 9.86353 19.2325C10.0298 19.1947 10.1897 19.133 10.3382 19.0493C10.8272 18.6212 11.1838 18.0623 11.366 17.4384C12.1547 15.4201 12.8312 13.3756 12.7564 11.1667C12.7367 11.0484 12.7028 10.933 12.6555 10.8228C12.5502 10.8787 12.4533 10.9491 12.3677 11.0321C11.8445 11.7236 11.3137 12.4113 10.8204 13.1252C10.087 14.1377 9.57743 15.2945 9.32531 16.519C9.21318 17.0983 9.19823 17.6926 9.14217 18.2794C9.1087 18.2318 9.07872 18.1818 9.05246 18.1299C8.7385 17.3824 8.43576 16.6348 8.11058 15.8873C8.0657 15.8 8.05234 15.6999 8.07277 15.6038C8.0932 15.5078 8.14617 15.4218 8.22271 15.3603C8.59912 15.0076 8.94081 14.6196 9.24308 14.2016C10.055 12.8654 10.6445 11.4062 10.9886 9.88096C11.1126 9.33369 11.1938 8.7776 11.2315 8.21772C11.2315 8.04579 11.1119 7.86265 11.0484 7.68324C10.8712 7.7491 10.7068 7.84521 10.5625 7.9673C10.1588 8.45319 9.77382 8.95777 9.40754 9.46235C8.661 10.4038 8.13252 11.499 7.86016 12.6692C7.75925 13.2373 7.7144 13.8167 7.63964 14.3923H7.60227L6.91828 11.6862L7.11264 11.974C7.1894 11.8191 7.27813 11.6704 7.37801 11.5293C7.82279 10.9723 8.39464 10.4827 8.70113 9.85853C9.15201 8.89248 9.52691 7.89276 9.82241 6.86844C9.937 6.3896 9.99718 5.89936 10.0018 5.40703C10.0018 5.28369 9.91585 5.15661 9.86726 5.03327C9.76635 5.07438 9.62432 5.08933 9.57199 5.16408C8.84316 6.1695 8.07694 7.1525 7.42286 8.19903C7.13714 8.75917 6.90439 9.34478 6.72766 9.94824C6.61766 9.58914 6.63751 9.20279 6.78373 8.85685C7.39657 7.30627 7.80735 5.68328 8.00593 4.02785C8.11885 2.86149 8.17001 1.68998 8.15917 0.518223C8.13817 0.373074 8.09532 0.231939 8.03209 0.0996094C7.89754 0.166887 7.71813 0.204263 7.62843 0.312654C6.86636 1.19487 6.31543 2.23921 6.01752 3.36629C5.61385 5.11549 5.79326 6.8647 6.12591 8.59896C6.27915 9.39507 6.4436 10.1874 6.60432 10.991C5.80821 10.6883 5.10927 10.3818 4.39165 10.1575C3.1412 9.82033 1.82914 9.78065 0.560592 10.0417C0.401234 10.0953 0.25303 10.1777 0.123291 10.2846C0.202297 10.4444 0.304297 10.5917 0.426038 10.7219C1.28885 11.4231 2.36418 11.8106 3.47594 11.8208C4.35869 11.8443 5.24014 11.7385 6.09227 11.5068C6.55573 11.376 6.61554 11.4283 6.72019 11.8806C6.84727 12.43 6.97435 12.9794 7.11638 13.5251C7.21729 13.9288 7.34063 14.3325 7.46397 14.7847C7.35558 14.7249 7.29578 14.6988 7.23972 14.6614C6.38923 14.0548 5.34271 13.7882 4.30569 13.9139C3.22178 14.0895 2.15656 14.3848 1.08386 14.6352C0.91153 14.6738 0.743679 14.7301 0.583018 14.8034C0.528903 14.8209 0.481731 14.8551 0.448273 14.9011C0.414816 14.9471 0.396793 15.0026 0.396793 15.0594C0.396793 15.1163 0.414816 15.1717 0.448273 15.2177C0.481731 15.2637 0.528903 15.2979 0.583018 15.3155C1.11467 15.5846 1.67024 15.8035 2.24252 15.9695C2.93338 16.0914 3.63119 16.1701 4.33185 16.205C5.48477 16.3161 6.64639 16.1161 7.69571 15.6257L8.9665 18.6532C7.57522 18.1271 6.06519 17.9977 4.6047 18.2794C3.48341 18.5223 2.36212 18.9148 1.27074 19.2586C1.13245 19.3035 1.02406 19.4455 0.896978 19.539C1.01284 19.6623 1.10628 19.8455 1.24831 19.9127C1.93448 20.2192 2.64449 20.4692 3.37128 20.6603C4.06515 20.7652 4.76637 20.8139 5.46809 20.806C6.69369 20.8123 7.90315 20.5266 8.9964 19.9725C9.14517 19.898 9.2899 19.8157 9.42996 19.7258L11.908 23.9157C11.5342 23.77 11.0969 23.5793 10.6559 23.4448C8.78709 22.8692 6.83979 22.8692 4.90371 23.071C4.19356 23.1383 3.49089 23.2915 2.78821 23.4186C2.48547 23.4747 2.41445 23.6279 2.60507 23.8148C3.20796 24.4567 3.93038 24.9747 4.73178 25.3398C6.08355 25.8895 7.52964 26.1701 8.98892 26.1658C10.2316 26.2385 11.4647 25.9096 12.506 25.2276C12.5843 25.1951 12.6695 25.1829 12.7538 25.1921C12.8381 25.2012 12.9187 25.2314 12.9882 25.28C13.7992 26.1732 14.5804 27.0927 15.4102 28.0495L14.7523 27.8327C13.9103 27.5307 13.0291 27.352 12.136 27.302C10.4523 27.2659 8.78151 27.6028 7.24346 28.2887C6.8211 28.4607 6.38007 28.5952 5.95398 28.7522C5.85547 28.7959 5.7605 28.8471 5.66992 28.9054C5.74467 29.0138 5.797 29.182 5.89418 29.2194C6.69029 29.5035 7.47519 29.8959 8.29746 29.9968C10.0803 30.2173 11.8818 30.4566 13.6871 30.1127C14.6103 29.9408 15.5372 29.7838 16.2848 29.1409C16.3415 29.0989 16.4015 29.0614 16.4642 29.0288C16.5988 29.1819 16.7464 29.3232 16.9052 29.4511C17.72 30.0043 18.5348 30.5724 19.3646 31.0845L19.686 31.2826C19.7056 31.2674 19.7199 31.2465 19.7271 31.2228ZM9.63553 6.14708C9.26177 7.86638 8.88801 9.60438 7.49761 10.8752C8.03934 9.22792 8.75476 7.64297 9.63179 6.14708H9.63553ZM9.21692 6.02C8.51798 7.62718 7.72187 9.42871 6.97435 11.2078C6.95566 9.0699 8.05078 7.42161 9.21318 6.02H9.21692ZM1.25205 10.2585C2.64834 10.0691 4.06984 10.2642 5.36343 10.8228L1.25205 10.3519V10.2585ZM0.792325 10.5836L5.83437 11.1966C4.63833 11.9142 1.59591 11.5031 0.792325 10.5836ZM6.30905 7.98972C5.64002 5.37339 6.30905 1.98711 7.7742 0.637827C6.82858 2.98879 6.68281 5.49299 6.30905 7.98972ZM7.8041 1.3704C8.14048 2.28238 7.3967 6.8348 6.63796 8.24388C6.84353 5.93777 6.99304 3.62045 7.79662 1.3704H7.8041ZM6.38754 14.5455C6.67908 14.6801 6.94818 14.8557 7.22851 15.0127L7.19113 15.1435C5.2765 14.8857 3.34336 14.792 1.41277 14.8632C3.04985 14.411 4.67571 13.7569 6.38754 14.5455ZM1.26326 15.293C1.88371 15.0426 6.24925 15.1547 7.33316 15.45C6.15581 16.1714 2.18272 16.0406 1.26326 15.2893V15.293ZM8.22271 14.9193C8.93618 12.8063 9.84198 10.7632 10.9287 8.81574C10.4242 11.0097 9.88221 13.2037 8.22271 14.9043V14.9193ZM10.839 8.08316L8.03209 14.1755C7.94239 11.6862 9.45239 9.9146 10.839 8.06821V8.08316ZM1.28195 19.6698C3.60675 18.4513 7.31447 18.014 9.0263 19.1503C8.9013 19.1491 8.77648 19.1403 8.65254 19.1241C7.34811 18.8849 6.05863 19.0755 4.77289 19.2699C3.80858 19.4156 2.84428 19.5577 1.87997 19.6885C1.6837 19.691 1.48753 19.6785 1.29317 19.6511L1.28195 19.6698ZM2.2201 19.909C4.52621 19.6287 6.80615 18.9933 9.17954 19.4231C8.17412 20.3986 4.42903 21.0303 2.2201 19.909ZM12.4612 11.9292C12.4724 12.046 12.4724 12.1637 12.4612 12.2805C12.2593 13.2785 12.0874 14.2914 11.8258 15.2706C11.558 16.1804 11.2284 17.0708 10.839 17.9355C10.6293 18.2857 10.3784 18.6095 10.0915 18.8998C10.013 19.0008 9.94202 19.1054 9.86726 19.2101C9.8411 19.0606 9.75887 18.8924 9.80372 18.769C10.4017 17.127 11.0085 15.4886 11.6239 13.854C11.8632 13.2074 12.1136 12.5646 12.3715 11.918L12.4612 11.9292ZM11.8407 12.359C11.0745 14.3698 10.312 16.3844 9.5234 18.4551C9.344 16.0219 10.3756 14.1082 11.8407 12.359ZM11.6202 24.1998L3.78242 23.6466C5.26252 23.0897 9.81868 23.0374 11.6202 24.1998ZM10.4989 25.6948C8.31176 26.0619 6.06461 25.6911 4.11133 24.6408C3.80914 24.4463 3.52517 24.2249 3.26289 23.9793L3.30401 23.897C6.30905 24.1263 9.31908 24.358 12.3341 24.5922C12.3976 24.5922 12.4537 24.6894 12.5509 24.7754C11.9732 25.2733 11.2626 25.5916 10.5064 25.6911L10.4989 25.6948ZM15.6755 28.5055C12.9246 28.6924 10.17 28.584 7.34063 28.5803C10.1513 27.3506 12.9059 27.2086 15.6755 28.5055ZM15.47 29.2942C14.1465 29.7829 12.7376 29.9978 11.3287 29.9258C10.7307 29.8847 10.1364 29.8212 9.53835 29.8174C8.47643 29.7786 7.43464 29.5162 6.48098 29.0475C9.68412 28.7298 12.8985 29.1147 16.1016 28.7672C16.1016 28.8083 16.1203 28.8456 16.1278 28.883C15.9253 29.0494 15.7046 29.1924 15.47 29.3091V29.2942Z" fill="white"/>
<path d="M14.7672 8.0609C14.4645 8.82711 13.8852 9.13734 13.2348 8.87944C12.9267 8.77145 12.6731 8.54701 12.5285 8.25426C12.3838 7.96151 12.3597 7.62374 12.4611 7.31338C12.6966 6.70041 13.5824 6.25937 14.173 6.48363C14.4512 6.62474 14.6665 6.8649 14.7765 7.15683C14.8865 7.44875 14.8832 7.77128 14.7672 8.0609ZM14.4757 7.94877C14.5536 7.72936 14.5505 7.48933 14.4668 7.27204C14.3832 7.05474 14.2246 6.87453 14.0197 6.76395C13.7627 6.70626 13.4938 6.7364 13.256 6.84956C13.0182 6.96271 12.8252 7.15234 12.7078 7.38813C12.6646 7.50699 12.6459 7.63337 12.6528 7.75965C12.6596 7.88594 12.692 8.00953 12.7478 8.12299C12.8037 8.23646 12.8819 8.33746 12.9778 8.41993C13.0737 8.50239 13.1853 8.56461 13.3058 8.60286C13.7992 8.79721 14.244 8.54305 14.4757 7.94877Z" fill="white"/>
<path d="M4.22696 7.20131C4.33037 7.23169 4.42674 7.28229 4.51046 7.35017C4.59419 7.41806 4.66361 7.50188 4.71471 7.59678C4.76581 7.69168 4.79758 7.79578 4.80816 7.90305C4.81875 8.01032 4.80795 8.11862 4.77639 8.22168C4.73027 8.34807 4.65944 8.464 4.56803 8.56272C4.47662 8.66143 4.36646 8.74094 4.24399 8.79661C4.12151 8.85229 3.98917 8.883 3.85469 8.88696C3.72021 8.89093 3.58629 8.86806 3.46074 8.8197C3.27049 8.72843 3.12425 8.56536 3.05416 8.36632C2.98408 8.16728 2.99588 7.94856 3.08698 7.75822C3.12019 7.6434 3.17708 7.53682 3.25399 7.44533C3.33089 7.35384 3.4261 7.27946 3.53349 7.227C3.64088 7.17454 3.75806 7.14515 3.8775 7.14072C3.99694 7.1363 4.11598 7.15694 4.22696 7.20131ZM4.11483 7.46294C4.03811 7.43112 3.9556 7.41563 3.87256 7.41745C3.78952 7.41928 3.70777 7.43838 3.63253 7.47354C3.55728 7.5087 3.49018 7.55916 3.43551 7.62168C3.38083 7.68421 3.33979 7.75744 3.31498 7.83671C3.25408 7.96903 3.24526 8.11944 3.29029 8.25797C3.33531 8.3965 3.43087 8.51299 3.55792 8.58423C3.74228 8.64497 3.94269 8.63454 4.11975 8.555C4.29681 8.47546 4.43771 8.33256 4.51475 8.1544C4.53269 8.08348 4.53647 8.00971 4.52589 7.93732C4.51531 7.86494 4.49057 7.79534 4.45308 7.73252C4.4156 7.66969 4.3661 7.61487 4.30742 7.57118C4.24874 7.52749 4.18202 7.49579 4.11109 7.47789L4.11483 7.46294Z" fill="white"/>
<path d="M11.9039 5.11565C12.0907 4.68583 12.3748 4.49895 12.6514 4.62229C12.8163 4.70935 12.9446 4.85253 13.0132 5.02596C13.0817 5.19939 13.086 5.39162 13.0251 5.5679C12.9407 5.70923 12.8063 5.81373 12.6485 5.86079C12.4907 5.90785 12.321 5.89403 12.173 5.82206C12.1032 5.80079 12.0392 5.76384 11.9859 5.71404C11.9326 5.66425 11.8914 5.60292 11.8654 5.53476C11.8395 5.46659 11.8294 5.39339 11.8361 5.32075C11.8427 5.24811 11.8659 5.17796 11.9039 5.11565Z" fill="white"/>
<path d="M3.75988 5.36955C3.82947 5.39767 3.89245 5.43994 3.94485 5.49368C3.99724 5.54742 4.03791 5.61145 4.06426 5.68173C4.09061 5.752 4.10208 5.82699 4.09794 5.90192C4.0938 5.97686 4.07414 6.05013 4.0402 6.11707C3.97856 6.25579 3.86929 6.36786 3.73217 6.43299C3.59505 6.49812 3.43915 6.51201 3.29268 6.47214C3.04226 6.37123 2.96003 6.06848 3.09085 5.74331C3.22166 5.41814 3.48703 5.25742 3.75988 5.36955Z" fill="white"/>
<path d="M1.39774 6.69277C1.52855 6.31901 1.7416 6.31901 1.89858 6.42367C2.05556 6.52832 2.07798 6.70399 2.16769 6.84975C1.99975 6.94508 1.81401 7.00488 1.62199 7.02542C1.52108 7.01421 1.44632 6.76753 1.39774 6.69277Z" fill="white"/>
<path d="M14.1133 5.15666C14.0423 4.9025 13.9376 4.71936 13.9862 4.65208C14.1205 4.50439 14.2769 4.37832 14.4497 4.27832C14.5265 4.46221 14.5696 4.65847 14.5767 4.85765C14.5767 4.95857 14.345 5.01463 14.1133 5.15666Z" fill="white"/>
<path d="M20.2242 16.5675C23.2815 16.9749 24.1673 18.4849 24.1673 20.051C24.1673 22.2487 22.4256 23.7886 19.529 23.7886C18.9534 23.7886 17.791 23.7288 16.2062 23.7288C15.3017 23.7288 14.3374 23.7512 13.8104 23.7886V23.4148C15.1223 23.3588 15.3765 23.1607 15.3765 21.7553V12.1646C15.3765 10.7593 15.1223 10.5612 13.8104 10.5051V10.1313C14.3486 10.1687 15.3054 10.1874 16.1688 10.1874C17.3873 10.1874 18.6207 10.15 19.0842 10.15C21.7902 10.1351 23.1731 11.3909 23.1731 13.1812C23.1731 14.5492 22.3994 15.8798 20.2391 16.5451L20.2242 16.5675ZM17.1705 12.1646V16.5451H18.4712C20.7437 16.5451 21.3043 15.0501 21.3043 13.3793C21.3043 11.4844 20.5306 10.5051 18.5945 10.5051C17.4247 10.5051 17.1705 10.834 17.1705 12.1646ZM22.235 19.965C22.235 18.0028 21.2445 16.8628 18.7926 16.8628H17.1705V21.7479C17.1705 23.0971 17.4247 23.3513 18.6207 23.3513C21.1511 23.3513 22.235 22.1515 22.235 19.965Z" fill="white"/>
<path d="M34.7149 18.8327C34.7149 22.5404 32.7826 24.0654 30.3307 24.0654C27.8788 24.0654 25.9427 22.5255 25.9427 18.8327C25.9427 15.14 27.8751 13.5776 30.3307 13.5776C32.7863 13.5776 34.7149 15.1175 34.7149 18.8327ZM27.819 18.8327C27.819 22.2863 28.8656 23.6916 30.3307 23.6916C31.7959 23.6916 32.8387 22.2975 32.8387 18.8327C32.8387 15.368 31.7996 13.9738 30.3307 13.9738C28.8618 13.9738 27.819 15.3717 27.819 18.8327Z" fill="white"/>
<path d="M42.149 13.8613V14.2351H39.2897V21.7103C39.2897 22.9251 39.7532 23.3511 40.5269 23.3511C41.3006 23.3511 41.8649 22.7942 42.2723 21.2842L42.6461 21.3814C42.3807 22.8765 41.7005 24.0501 40.1382 24.0501C39.2486 24.0501 38.7291 23.8333 38.3067 23.4072C37.7424 22.8316 37.5592 22.0766 37.5592 20.7012V14.2463H35.6904V13.8725H37.5592V10.9198C38.148 10.9199 38.7332 10.8278 39.2935 10.647V13.8725L42.149 13.8613Z" fill="white"/>
<path d="M49.6131 14.3025C50.2261 14.923 50.3831 15.6406 50.3831 17.0086V22.3795C50.3831 23.0037 50.5363 23.2952 50.9773 23.2952C51.3071 23.2775 51.6181 23.136 51.8482 22.8991L52.065 23.2317C51.5863 23.68 50.9566 23.9321 50.3008 23.9381C48.9515 23.9381 48.6413 23.1271 48.6413 22.2225C48.3456 22.7488 47.9136 23.1858 47.3908 23.4877C46.868 23.7895 46.2736 23.9451 45.6699 23.9381C44.3767 23.9381 43.2143 23.2878 43.2143 21.7778C43.2143 20.2678 44.3954 19.5688 46.3277 18.7578C47.6209 18.2233 48.6413 17.8906 48.6413 17.117V15.9097C48.6413 14.2876 47.8489 13.9661 46.8473 13.9661C46.1857 13.9661 45.3746 14.097 44.9336 14.6539C45.1959 14.7191 45.4283 14.8714 45.5926 15.086C45.757 15.3006 45.8435 15.5647 45.8381 15.835C45.8438 15.9804 45.8181 16.1254 45.7627 16.26C45.7073 16.3946 45.6235 16.5157 45.5171 16.615C45.4107 16.7143 45.2841 16.7895 45.146 16.8355C45.0079 16.8815 44.8615 16.8972 44.7168 16.8815C44.0553 16.8815 43.6703 16.3806 43.6703 15.6817C43.6703 15.1173 44.044 14.6726 44.5748 14.3063C45.3896 13.8089 46.3302 13.556 47.2846 13.5774C48.3573 13.5774 49.1683 13.8615 49.6131 14.3025ZM48.6413 17.8944C48.432 18.2083 48.0059 18.4027 46.7912 19.0157C45.9428 19.4231 44.9224 19.98 44.9224 21.4713C44.9224 22.6299 45.5802 23.1682 46.4698 23.1682C47.2435 23.1682 47.9947 22.7608 48.6488 21.7068L48.6413 17.8944Z" fill="white"/>
<path d="M61.1843 14.3027C61.6665 14.8297 61.8534 15.5175 61.8534 16.8406V22.0022C61.8534 23.0787 62.2608 23.3889 63.326 23.3889V23.7963C62.8849 23.7963 61.8534 23.7178 61.0049 23.7178C60.1565 23.7178 59.252 23.7776 58.8446 23.7963V23.3889C59.7715 23.3889 60.1191 23.0787 60.1191 22.0022V16.4182C60.1191 15.2185 59.9509 14.1757 58.5531 14.1757C56.9309 14.1757 55.847 15.723 55.847 17.6965V22.0022C55.847 23.0787 56.1946 23.3889 57.129 23.3889V23.7963C56.7254 23.7963 55.8096 23.7178 54.9612 23.7178C54.1128 23.7178 53.0924 23.7776 52.6401 23.7963V23.3889C53.7054 23.3889 54.109 23.0787 54.109 22.0022V15.9548C54.109 14.7961 53.7614 14.2467 52.6401 14.2467V13.843C53.0438 13.8804 53.4512 13.8991 53.8362 13.8991C54.5163 13.9181 55.1951 13.8286 55.847 13.6337V15.9099C56.5273 14.1719 57.8167 13.5776 59.1399 13.5776C60.1191 13.5776 60.7433 13.843 61.1843 14.3027Z" fill="white"/>
<path d="M67.3856 22.0019C67.3856 23.0783 67.7892 23.3886 68.8545 23.3886V23.796C68.4134 23.796 67.4043 23.7175 66.5147 23.7175C65.6252 23.7175 64.6197 23.7773 64.1787 23.796V23.3886C65.2439 23.3886 65.6476 23.0783 65.6476 22.0019V15.9544C65.6476 14.7958 65.3 14.2463 64.1787 14.2463V13.8427C64.5824 13.8801 64.9898 13.8987 65.3747 13.8987C66.0549 13.9178 66.7337 13.8282 67.3856 13.6334V22.0019ZM67.6211 10.2471C67.6218 10.4919 67.5499 10.7315 67.4144 10.9354C67.2789 11.1394 67.0859 11.2985 66.8599 11.3927C66.6339 11.4869 66.3851 11.512 66.1448 11.4647C65.9046 11.4173 65.6838 11.2998 65.5104 11.1269C65.337 10.9541 65.2188 10.7336 65.1708 10.4936C65.1228 10.2535 65.147 10.0045 65.2406 9.77825C65.3341 9.55198 65.4927 9.35854 65.6962 9.22243C65.8997 9.08633 66.1391 9.01367 66.3839 9.01367C66.7105 9.01658 67.0229 9.14735 67.2542 9.37793C67.4854 9.6085 67.6172 9.92053 67.6211 10.2471Z" fill="white"/>
<path d="M78.4225 22.3798C78.8636 22.9816 79.1925 23.3142 79.7681 23.389V23.7964C79.4765 23.7964 78.7888 23.7179 78.202 23.7179C77.3909 23.7179 76.4677 23.7777 76.0641 23.7964V23.389C76.4378 23.389 76.6584 23.2394 76.6584 23.0152C76.65 22.9074 76.6097 22.8046 76.5425 22.7199L74.3261 19.4757C73.8551 18.8178 73.5524 18.6571 72.8759 18.6272V21.9911C72.8759 23.0675 73.2235 23.3777 74.1467 23.3777V23.7964C73.743 23.7964 72.8161 23.7179 72.005 23.7179C71.1192 23.7179 70.11 23.7777 69.669 23.7964V23.389C70.7342 23.389 71.1379 23.0787 71.1379 22.0023V10.9651C71.1379 9.80644 70.7903 9.26823 69.669 9.26823V8.86082C70.0664 8.90079 70.4656 8.92075 70.865 8.92063C71.546 8.94006 72.2255 8.8466 72.8759 8.64404V18.2385C73.5094 18.1881 74.1013 17.9028 74.5354 17.4387L75.9669 15.9436C76.4005 15.4914 76.5799 15.1438 76.5799 14.8784C76.5799 14.4075 75.9669 14.2168 75.1558 14.2168V13.8431C75.8286 13.8804 76.778 13.9178 77.3349 13.9178C77.9777 13.9178 78.6281 13.8804 79.0168 13.8431V14.2168C78.3448 14.2934 77.7253 14.6171 77.2788 15.1251L74.9316 17.5956L78.4225 22.3798Z" fill="white"/>
<path d="M86.8622 14.3025C87.4751 14.9229 87.6358 15.6405 87.6358 17.0085V22.3795C87.6358 23.0037 87.7891 23.2952 88.2301 23.2952C88.5599 23.2775 88.8709 23.136 89.101 22.899L89.3178 23.2316C88.839 23.6799 88.2094 23.932 87.5536 23.9381C86.2043 23.9381 85.8904 23.127 85.8904 22.2225C85.5931 22.7516 85.1582 23.1904 84.6318 23.4924C84.1054 23.7944 83.5071 23.9484 82.9003 23.9381C81.6108 23.9381 80.4484 23.2877 80.4484 21.7777C80.4484 20.2677 81.6295 19.5688 83.5618 18.7577C84.8551 18.2232 85.8717 17.8906 85.8717 17.1169V15.9097C85.8717 14.2875 85.0793 13.9661 84.0814 13.9661C83.4198 13.9661 82.6087 14.0969 82.1677 14.6538C82.43 14.719 82.6624 14.8714 82.8267 15.086C82.9911 15.3006 83.0776 15.5647 83.0722 15.8349C83.0779 15.9803 83.0522 16.1253 82.9968 16.2599C82.9414 16.3945 82.8576 16.5156 82.7512 16.6149C82.6448 16.7142 82.5182 16.7895 82.3801 16.8354C82.242 16.8814 82.0956 16.8971 81.9509 16.8814C81.2894 16.8814 80.9044 16.3806 80.9044 15.6817C80.9044 15.1173 81.2781 14.6725 81.8089 14.3062C82.6226 13.8094 83.5618 13.5564 84.5149 13.5774C85.61 13.5774 86.4211 13.8614 86.8622 14.3025ZM85.8904 17.8943C85.6848 18.2083 85.2587 18.4026 84.044 19.0156C83.1955 19.423 82.1752 19.9799 82.1752 21.4712C82.1752 22.6299 82.833 23.1681 83.7188 23.1681C84.4925 23.1681 85.2475 22.7607 85.8978 21.7067L85.8904 17.8943Z" fill="white"/>
<path d="M32.6257 30.6733V31.9403H32.2893V30.9835H28.8731V27.3057H29.2244V30.6695H31.6614V27.3057H32.0127V30.6695L32.6257 30.6733Z" fill="white"/>
<path d="M36.6287 30.0005C36.6287 30.6359 36.1802 30.9872 35.2345 30.9872H33.6386V27.3057H35.1897C36.0008 27.3057 36.4979 27.6308 36.4979 28.2438C36.5024 28.4422 36.4366 28.6359 36.3121 28.7905C36.1876 28.9451 36.0124 29.0506 35.8176 29.0885C35.9314 29.0932 36.0431 29.1208 36.146 29.1695C36.2489 29.2183 36.341 29.2873 36.4167 29.3724C36.4923 29.4575 36.5501 29.557 36.5865 29.6649C36.623 29.7728 36.6373 29.8869 36.6287 30.0005ZM34.0123 28.9839H35.1934C35.8214 28.9839 36.1727 28.7446 36.1727 28.2849C36.1727 27.8252 35.8214 27.5935 35.1934 27.5935H34.0123V28.9839ZM36.2885 30.0005C36.2885 29.5034 35.9858 29.2754 35.2943 29.2754H34.0123V30.7144H35.2495C35.9223 30.6957 36.2885 30.4752 36.2885 30.0005Z" fill="white"/>
<path d="M41.0273 29.2304H37.8653C37.8854 29.5384 37.9958 29.8337 38.1828 30.0793C38.3697 30.3249 38.625 30.5099 38.9165 30.6112C39.2081 30.7125 39.5231 30.7256 39.8221 30.6489C40.121 30.5722 40.3908 30.409 40.5975 30.1798L40.8031 30.4115C40.6311 30.6082 40.4174 30.764 40.1774 30.8675C39.9375 30.9709 39.6775 31.0195 39.4164 31.0095C39.1665 31.0221 38.9166 30.9826 38.6827 30.8935C38.4489 30.8044 38.2361 30.6676 38.0579 30.4919C37.8797 30.3162 37.74 30.1053 37.6476 29.8727C37.5553 29.6401 37.5123 29.3908 37.5214 29.1407C37.5058 28.9004 37.5395 28.6594 37.6207 28.4326C37.7019 28.2059 37.8288 27.9982 37.9934 27.8225C38.1581 27.6467 38.3571 27.5066 38.578 27.4108C38.799 27.315 39.0373 27.2656 39.2781 27.2656C39.519 27.2656 39.7572 27.315 39.9782 27.4108C40.1992 27.5066 40.3982 27.6467 40.5628 27.8225C40.7275 27.9982 40.8543 28.2059 40.9355 28.4326C41.0167 28.6594 41.0505 28.9004 41.0348 29.1407C41.0348 29.1594 41.0273 29.193 41.0273 29.2304ZM37.8728 28.9538H40.6909C40.6909 28.5801 40.5425 28.2217 40.2782 27.9574C40.014 27.6932 39.6556 27.5447 39.2819 27.5447C38.9081 27.5447 38.5497 27.6932 38.2855 27.9574C38.0212 28.2217 37.8728 28.5801 37.8728 28.9538Z" fill="white"/>
<path d="M44.4776 27.6234H43.0386V30.9872H42.6873V27.6234H41.252V27.3057H44.4776V27.6234Z" fill="white"/>
<path d="M48.077 29.7987C48.077 30.5798 47.5575 31.0059 46.6007 30.9984H45.2252V27.3057H45.599V28.6325H46.6941C47.5911 28.6512 48.077 29.0549 48.077 29.7987ZM47.7257 29.7987C47.7257 29.2006 47.3519 28.9278 46.6044 28.9128H45.599V30.7106H46.6044C47.3407 30.748 47.7257 30.4041 47.7257 29.7987ZM48.7535 27.3057H49.1086V30.9835H48.7535V27.3057Z" fill="white"/>
<path d="M55.4175 30.0005C55.4175 30.6359 54.9653 30.9872 54.0234 30.9872H52.4312V27.3057H53.9823C54.7896 27.3057 55.2904 27.6308 55.2904 28.2438C55.2941 28.4426 55.2275 28.6363 55.1023 28.7908C54.9772 28.9453 54.8016 29.0507 54.6064 29.0885C54.7202 29.0932 54.8319 29.1208 54.9348 29.1695C55.0378 29.2183 55.1298 29.2873 55.2055 29.3724C55.2812 29.4575 55.339 29.557 55.3754 29.6649C55.4118 29.7728 55.4261 29.8869 55.4175 30.0005ZM52.775 28.9876H53.9598C54.5878 28.9876 54.9391 28.7484 54.9391 28.2887C54.9391 27.8289 54.5878 27.5972 53.9598 27.5972H52.775V28.9876ZM55.0662 30.0005C55.0662 29.5034 54.7634 29.2754 54.072 29.2754H52.775V30.7144H54.0159C54.6999 30.6957 55.0662 30.4752 55.0662 30.0005Z" fill="white"/>
<path d="M62.6646 26.0537V30.9836H62.2909V26.3751H58.9532V30.9836H58.5794V26.0537H62.6646Z" fill="white"/>
<path d="M67.4451 29.2304H64.2869C64.3069 29.5384 64.4173 29.8337 64.6043 30.0793C64.7913 30.3249 65.0465 30.5099 65.3381 30.6112C65.6297 30.7125 65.9446 30.7256 66.2436 30.6489C66.5426 30.5722 66.8123 30.409 67.0191 30.1798L67.2246 30.4115C67.0527 30.6082 66.8389 30.764 66.599 30.8675C66.3591 30.9709 66.0991 31.0195 65.838 31.0095C65.588 31.0221 65.3382 30.9826 65.1043 30.8935C64.8704 30.8044 64.6577 30.6676 64.4795 30.4919C64.3013 30.3162 64.1616 30.1053 64.0692 29.8727C63.9769 29.6401 63.9339 29.3908 63.943 29.1407C63.9273 28.9004 63.9611 28.6594 64.0423 28.4326C64.1235 28.2059 64.2503 27.9982 64.415 27.8225C64.5796 27.6467 64.7786 27.5066 64.9996 27.4108C65.2206 27.315 65.4588 27.2656 65.6997 27.2656C65.9405 27.2656 66.1788 27.315 66.3998 27.4108C66.6207 27.5066 66.8197 27.6467 66.9844 27.8225C67.149 27.9982 67.2759 28.2059 67.3571 28.4326C67.4382 28.6594 67.472 28.9004 67.4564 29.1407C67.4526 29.1594 67.4451 29.193 67.4451 29.2304ZM64.2869 28.9538H67.105C67.105 28.5801 66.9566 28.2217 66.6923 27.9574C66.4281 27.6932 66.0697 27.5447 65.6959 27.5447C65.3222 27.5447 64.9638 27.6932 64.6996 27.9574C64.4353 28.2217 64.2869 28.5801 64.2869 28.9538Z" fill="white"/>
<path d="M70.8914 27.6234H69.4525V30.9872H69.1011V27.6234H67.6509V27.3057H70.8765L70.8914 27.6234Z" fill="white"/>
<path d="M74.6102 29.2306H71.4482C71.4682 29.5386 71.5786 29.8339 71.7656 30.0795C71.9526 30.3251 72.2078 30.5101 72.4994 30.6114C72.791 30.7127 73.106 30.7258 73.4049 30.6491C73.7039 30.5723 73.9736 30.4092 74.1804 30.18L74.3822 30.4117C74.2104 30.6086 73.9967 30.7646 73.7567 30.868C73.5168 30.9715 73.2567 31.0199 72.9955 31.0097C72.7456 31.0223 72.4958 30.9828 72.2619 30.8937C72.028 30.8046 71.8152 30.6678 71.637 30.4921C71.4588 30.3163 71.3191 30.1055 71.2268 29.8729C71.1344 29.6403 71.0914 29.391 71.1006 29.1409C71.0852 28.9006 71.1194 28.6598 71.201 28.4333C71.2826 28.2068 71.4099 27.9995 71.575 27.8242C71.7401 27.649 71.9394 27.5095 72.1606 27.4146C72.3819 27.3196 72.6202 27.2711 72.861 27.2721C73.1021 27.2694 73.3411 27.3167 73.5629 27.4112C73.7847 27.5056 73.9845 27.6451 74.1497 27.8208C74.3148 27.9964 74.4417 28.2045 74.5222 28.4317C74.6028 28.659 74.6353 28.9004 74.6177 29.1409C74.6177 29.1596 74.6102 29.1932 74.6102 29.2306ZM71.4556 28.954H74.2701C74.2515 28.5933 74.0951 28.2536 73.8332 28.0049C73.5714 27.7561 73.224 27.6175 72.8629 27.6175C72.5017 27.6175 72.1543 27.7561 71.8925 28.0049C71.6306 28.2536 71.4742 28.5933 71.4556 28.954Z" fill="white"/>
<path d="M79.4352 29.1447C79.4476 29.3893 79.4094 29.6338 79.323 29.8629C79.2365 30.092 79.1037 30.3008 78.9329 30.4763C78.762 30.6517 78.5567 30.79 78.33 30.8824C78.1032 30.9749 77.8598 31.0195 77.615 31.0135C77.3102 31.0227 77.0088 30.9469 76.7447 30.7943C76.4806 30.6418 76.2643 30.4188 76.1199 30.1501V32.3553H75.7686V27.3058H76.105V28.1729C76.2449 27.8984 76.4594 27.669 76.7239 27.511C76.9883 27.353 77.292 27.2728 77.6 27.2796C77.8456 27.2722 78.0901 27.3155 78.3181 27.407C78.5461 27.4985 78.7528 27.6361 78.9251 27.8112C79.0974 27.9863 79.2317 28.1952 79.3195 28.4247C79.4072 28.6541 79.4466 28.8993 79.4352 29.1447ZM79.0801 29.1447C79.0691 28.8517 78.9722 28.5683 78.8014 28.3299C78.6305 28.0916 78.3934 27.9087 78.1194 27.8041C77.8454 27.6995 77.5468 27.6777 77.2605 27.7416C76.9743 27.8055 76.7132 27.9521 76.5097 28.1632C76.3062 28.3744 76.1692 28.6407 76.116 28.9291C76.0627 29.2175 76.0954 29.5152 76.21 29.7851C76.3246 30.055 76.5161 30.2853 76.7606 30.4472C77.0051 30.6092 77.2918 30.6956 77.5851 30.6958C77.7874 30.7003 77.9885 30.6628 78.1757 30.5857C78.3628 30.5086 78.532 30.3935 78.6724 30.2478C78.8129 30.1021 78.9216 29.9288 78.9918 29.739C79.062 29.5491 79.092 29.3468 79.0801 29.1447Z" fill="white"/>
<path d="M84.0479 29.1748C84.0612 29.4183 84.0233 29.6619 83.9368 29.89C83.8504 30.1181 83.7171 30.3255 83.5457 30.499C83.3743 30.6725 83.1685 30.8083 82.9415 30.8976C82.7145 30.9869 82.4714 31.0277 82.2277 31.0174C81.0055 31.0174 80.329 30.068 80.329 28.6179C80.329 26.9471 80.9345 26.222 82.1716 25.9268L83.8087 25.5156L83.8648 25.8483L82.3137 26.222C81.1924 26.4837 80.6953 27.0593 80.6728 28.4646C80.7905 28.1343 81.0106 27.8503 81.3011 27.654C81.5916 27.4576 81.9372 27.3593 82.2875 27.3732C82.5244 27.365 82.7604 27.4063 82.9805 27.4945C83.2005 27.5827 83.3997 27.7158 83.5654 27.8854C83.7311 28.0549 83.8595 28.2572 83.9426 28.4792C84.0257 28.7012 84.0616 28.9381 84.0479 29.1748ZM83.6741 29.1748C83.6841 28.9784 83.6541 28.782 83.5858 28.5976C83.5175 28.4132 83.4124 28.2446 83.277 28.1021C83.1415 27.9595 82.9785 27.8461 82.7978 27.7685C82.617 27.691 82.4225 27.651 82.2258 27.651C82.0292 27.651 81.8346 27.691 81.6539 27.7685C81.4732 27.8461 81.3101 27.9595 81.1747 28.1021C81.0392 28.2446 80.9341 28.4132 80.8659 28.5976C80.7976 28.782 80.7675 28.9784 80.7775 29.1748C80.7675 29.3711 80.7976 29.5675 80.8659 29.7519C80.9341 29.9363 81.0392 30.1049 81.1747 30.2474C81.3101 30.39 81.4732 30.5035 81.6539 30.581C81.8346 30.6586 82.0292 30.6986 82.2258 30.6986C82.4225 30.6986 82.617 30.6586 82.7978 30.581C82.9785 30.5035 83.1415 30.39 83.277 30.2474C83.4124 30.1049 83.5175 29.9363 83.5858 29.7519C83.6541 29.5675 83.6841 29.3711 83.6741 29.1748Z" fill="white"/>
<path d="M88.0881 27.3057L86.2006 31.4955C85.9053 32.172 85.539 32.3888 85.0531 32.3888C84.896 32.3932 84.7397 32.3661 84.5933 32.3089C84.4469 32.2518 84.3135 32.1658 84.2009 32.0562L84.3766 31.7908C84.4632 31.8852 84.5691 31.9598 84.6871 32.0094C84.8052 32.0591 84.9326 32.0827 85.0606 32.0786C85.397 32.0786 85.6437 31.9254 85.8716 31.4245L86.066 30.9797L84.414 27.3169H84.7877L86.2604 30.606L87.733 27.3169L88.0881 27.3057Z" fill="white"/>
<path d="M92.6107 29.1444C92.6237 29.3888 92.586 29.6332 92.5 29.8623C92.414 30.0915 92.2815 30.3003 92.1109 30.4758C91.9404 30.6513 91.7353 30.7896 91.5088 30.8821C91.2822 30.9746 91.0389 31.0192 90.7943 31.0132C90.4897 31.0212 90.1888 30.9447 89.925 30.7924C89.6611 30.64 89.4446 30.4176 89.2992 30.1498V32.355H88.9554V27.3055H89.2955V28.1726C89.4354 27.8981 89.6499 27.6687 89.9144 27.5107C90.1788 27.3527 90.4825 27.2725 90.7905 27.2793C91.035 27.2734 91.2781 27.3179 91.5046 27.4101C91.7311 27.5024 91.9362 27.6403 92.107 27.8153C92.2778 27.9903 92.4107 28.1987 92.4974 28.4274C92.584 28.656 92.6226 28.9001 92.6107 29.1444ZM92.2594 29.1444C92.2484 28.8514 92.1515 28.568 91.9806 28.3296C91.8098 28.0913 91.5727 27.9084 91.2987 27.8038C91.0247 27.6992 90.7261 27.6774 90.4398 27.7413C90.1536 27.8052 89.8925 27.9518 89.689 28.1629C89.4855 28.3741 89.3485 28.6404 89.2953 28.9288C89.242 29.2172 89.2747 29.5149 89.3893 29.7848C89.5039 30.0547 89.6954 30.285 89.9399 30.4469C90.1844 30.6089 90.4711 30.6953 90.7644 30.6955C90.9667 30.7 91.1678 30.6625 91.355 30.5854C91.5421 30.5083 91.7112 30.3932 91.8517 30.2475C91.9922 30.1018 92.1009 29.9285 92.1711 29.7387C92.2413 29.5488 92.2713 29.3465 92.2594 29.1444Z" fill="white"/>
<path d="M96.2733 27.6234H94.1092V30.9872H93.7578V27.3057H96.2733V27.6234Z" fill="white"/>
<path d="M99.9923 29.2306H96.8303C96.8503 29.5386 96.9608 29.8339 97.1477 30.0795C97.3347 30.3251 97.5899 30.5101 97.8815 30.6114C98.1731 30.7127 98.4881 30.7258 98.787 30.6491C99.086 30.5724 99.3558 30.4092 99.5625 30.18L99.7681 30.4117C99.5954 30.6085 99.3809 30.7643 99.1404 30.8678C98.8999 30.9712 98.6393 31.0197 98.3777 31.0097C98.1277 31.0223 97.8779 30.9828 97.644 30.8937C97.4101 30.8046 97.1973 30.6678 97.0191 30.4921C96.8409 30.3164 96.7012 30.1055 96.6089 29.8729C96.5165 29.6403 96.4736 29.391 96.4827 29.1409C96.4673 28.9003 96.5016 28.6591 96.5834 28.4324C96.6652 28.2056 96.7929 27.9982 96.9584 27.8229C97.1238 27.6476 97.3236 27.5082 97.5453 27.4134C97.767 27.3187 98.0058 27.2706 98.2468 27.2721C98.4878 27.2693 98.7266 27.3167 98.9483 27.4112C99.1699 27.5057 99.3695 27.6452 99.5343 27.8209C99.6992 27.9967 99.8257 28.2048 99.9058 28.432C99.9859 28.6592 100.018 28.9006 99.9998 29.1409C99.9998 29.1596 99.9923 29.1932 99.9923 29.2306ZM96.8377 28.954H99.6522C99.6336 28.5933 99.4772 28.2536 99.2154 28.0049C98.9535 27.7562 98.6061 27.6175 98.245 27.6175C97.8838 27.6175 97.5364 27.7562 97.2746 28.0049C97.0127 28.2536 96.8563 28.5933 96.8377 28.954Z" fill="white"/>
</g>
<defs>
<clipPath id="clip0_1_209">
<rect width="100" height="32.2781" fill="white" transform="translate(0 0.0996094)"/>
</clipPath>
</defs>
</svg>
