<svg width="26" height="21" viewBox="0 0 26 21" fill="none" xmlns="http://www.w3.org/2000/svg">
<path d="M25.7588 2.46678C24.8116 2.86844 23.7929 3.1399 22.7241 3.2622C23.8149 2.63704 24.6525 1.64762 25.0471 0.46888C24.0262 1.04771 22.8956 1.46756 21.6913 1.69387C20.7278 0.712828 19.3544 0.0996094 17.8345 0.0996094C14.9158 0.0996094 12.5503 2.36002 12.5503 5.14848C12.5503 5.54435 12.5966 5.92982 12.687 6.29912C8.29503 6.08884 4.40126 4.07814 1.79486 1.02376C1.33997 1.76913 1.07939 2.63632 1.07939 3.56179C1.07939 5.31372 2.01193 6.85887 3.43028 7.76465C2.56407 7.73877 1.74915 7.51155 1.03665 7.1331C1.03563 7.15438 1.03563 7.17536 1.03563 7.19648C1.03563 9.64322 2.8574 11.6834 5.27461 12.1476C4.83157 12.263 4.36482 12.324 3.88283 12.324C3.54197 12.324 3.2115 12.2932 2.88828 12.234C3.56119 14.2398 5.51239 15.6998 7.82521 15.7406C6.01517 17.0951 3.73697 17.9019 1.26097 17.9019C0.834721 17.9019 0.413742 17.8779 0 17.8315C2.33958 19.264 5.11689 20.0996 8.10148 20.0996C17.8212 20.0996 23.1358 12.4063 23.1358 5.73365C23.1358 5.51485 23.1305 5.29754 23.1209 5.081C24.1529 4.36857 25.0487 3.47954 25.7576 2.46682" fill="white"/>
</svg>
